<?xml version="1.0" encoding="UTF-8"?>
<svg width="140px" height="32px" viewBox="0 0 140 32" version="1.1" xmlns="http://www.w3.org/2000/svg" xmlns:xlink="http://www.w3.org/1999/xlink">
    <!-- Generator: Sketch 51.1 (57501) - http://www.bohemiancoding.com/sketch -->
    <title>path0_fill</title>
    <desc>Created with Sketch.</desc>
    <defs></defs>
    <g id="Page-1" stroke="none" stroke-width="1" fill="none" fill-rule="evenodd">
        <g id="home" transform="translate(-162.000000, -37.000000)" fill="#FFFFFF" fill-rule="nonzero">
            <g id="bb-logo" transform="translate(162.000000, 37.000000)">
                <path d="M0.129285464,24.6153846 L10.4203152,24.6153846 C12.3421891,24.6153846 13.9456427,23.9704615 15.2306025,22.6803692 C16.5267671,21.4464 17.1860175,19.7691077 17.2083538,17.6489846 C17.2083538,16.3701908 16.8899089,15.1867077 16.2530193,14.09856 C15.5714081,13.0440615 14.5657863,12.3429415 13.2361051,11.9952 L13.2361051,11.9278769 C13.9400525,11.5913354 14.5322452,11.2155569 15.012732,10.8004923 C15.4931944,10.4078523 15.8619264,9.99278769 16.1189282,9.55529846 C16.6217513,8.63542154 16.8619825,7.67067077 16.8396217,6.66104615 C16.8396217,4.68669538 16.2306585,3.09934769 15.012732,1.89902769 C13.8059615,0.709932308 12.0014081,0.104172308 9.59904729,0.0817230769 L0.129285464,0.0817230769 L0.129285464,24.6153846 Z M9.53201401,13.7283692 C10.9063678,13.7507938 11.912014,14.1153969 12.5489037,14.8221046 C13.1858179,15.5400615 13.5042627,16.40384 13.5042627,17.4134154 C13.5042627,18.4007385 13.1858179,19.2531692 12.5489037,19.9712 C11.912014,20.7003077 10.9063678,21.0761846 9.53201401,21.0985846 L3.83340105,21.0985846 L3.83340105,13.7283692 L9.53201401,13.7283692 Z M9.18002802,3.39662769 C10.5320455,3.41907692 11.5265114,3.75000615 12.1634256,4.38941538 C12.8114956,5.07372308 13.1355306,5.90946462 13.1355306,6.89664 C13.1355306,7.88381538 12.8114956,8.70272 12.1634256,9.35335385 C11.5265114,10.0600862 10.5320455,10.4134646 9.18002802,10.4134646 L3.83340105,10.4134646 L3.83340105,3.39662769 L9.18002802,3.39662769 Z M20.8621821,24.6153846 L24.3651489,24.6153846 L24.3651489,7.14904615 L20.8621821,7.14904615 L20.8621821,24.6153846 Z M20.8621821,3.59854769 L24.3651489,3.59854769 L24.3651489,0.0817230769 L20.8621821,0.0817230769 L20.8621821,3.59854769 Z M38.795937,22.7812923 L38.795937,24.5816615 C38.7736252,25.7708308 38.4048687,26.7020308 37.6899124,27.3750154 C36.9634326,28.0369231 36.0025569,28.3677538 34.8070403,28.3677538 C34.1700525,28.3453538 33.5556217,28.1715692 32.9632574,27.8461538 C32.3824168,27.5544615 31.8682662,27.2012308 31.421296,26.7859692 L28.7061296,28.9568 C30.3709282,30.8637538 32.3824168,31.8397538 34.7398599,31.8845538 C36.795972,31.8845538 38.561296,31.2507077 40.0363222,29.9832615 C41.5000701,28.7492923 42.2542557,26.8196923 42.2991243,24.1947077 L42.2991243,7.14904615 L38.795937,7.14904615 L38.795937,9 C37.5334851,7.62018462 36.0361471,6.93028923 34.3041681,6.93028923 C33.1755867,6.95271385 32.2370228,7.17147077 31.4884764,7.58653538 C30.7063398,8.02404923 30.1083363,8.51763692 29.6949562,9.06729846 C29.2369527,9.62820923 28.9071804,10.3181046 28.7061296,11.1370092 C28.4938004,11.9671385 28.3876357,13.5544862 28.3876357,15.8990277 C28.3876357,18.1986462 28.4938004,19.7580308 28.7061296,20.5769846 C28.9071804,21.4070154 29.2369527,22.1080615 29.6949562,22.6803692 C30.1083363,23.1849846 30.7063398,23.6563692 31.4884764,24.0937846 C32.2370228,24.5536 33.1755867,24.7948308 34.3041681,24.8172308 C36.147951,24.7724308 37.6450438,24.0937846 38.795937,22.7812923 Z M31.8905779,15.8990277 C31.8905779,14.5416615 31.9354466,13.59936 32.0246935,13.0721231 C32.1029072,12.5448615 32.2872855,12.1185969 32.5778284,11.79328 C32.8124694,11.4791631 33.1699475,11.1706831 33.6505079,10.8677908 C34.1087566,10.6097723 34.6785639,10.4695631 35.3601751,10.4471138 C36.0417863,10.4695631 36.6115937,10.6097723 37.0695972,10.8677908 C37.5278459,11.1706831 37.8742907,11.4791631 38.1089317,11.79328 C38.3994746,12.1185969 38.5948862,12.5448615 38.6954116,13.0721231 C38.7625919,13.59936 38.795937,14.5416615 38.795937,15.8990277 C38.795937,17.2339692 38.7625919,18.1538462 38.6954116,18.6587077 C38.5948862,19.1859692 38.3994746,19.6233846 38.1089317,19.9712 C37.8742907,20.2852923 37.5278459,20.5713231 37.0695972,20.8292923 C36.6115937,21.1433846 36.0417863,21.3004308 35.3601751,21.3004308 C34.6785639,21.3004308 34.1087566,21.1433846 33.6505079,20.8292923 C33.1699475,20.5713231 32.8124694,20.2852923 32.5778284,19.9712 C32.2872855,19.6233846 32.1029072,19.1859692 32.0246935,18.6587077 C31.9354466,18.1538462 31.8905779,17.2339692 31.8905779,15.8990277 Z M47.1596497,24.6153846 L57.4505079,24.6153846 C59.3725044,24.6153846 60.976007,23.9704615 62.2610158,22.6803692 C63.5570578,21.4464 64.2163573,19.7691077 64.238669,17.6489846 C64.238669,16.3701908 63.9201751,15.1867077 63.2831874,14.09856 C62.6018214,13.0440615 61.5960771,12.3429415 60.2664448,11.9952 L60.2664448,11.9278769 C60.9703678,11.5913354 61.5624869,11.2155569 62.0430473,10.8004923 C62.5236077,10.4078523 62.8921191,9.99278769 63.149317,9.55529846 C63.651944,8.63542154 63.8922242,7.67067077 63.8699124,6.66104615 C63.8699124,4.68669538 63.2608757,3.09934769 62.0430473,1.89902769 C60.8362522,0.709932308 59.0316988,0.104172308 56.629387,0.0817230769 L47.1596497,0.0817230769 L47.1596497,24.6153846 Z M56.5622067,13.7283692 C57.9367075,13.7507938 58.9422067,14.1153969 59.5791944,14.8221046 C60.2161821,15.5400615 60.534676,16.40384 60.534676,17.4134154 C60.534676,18.4007385 60.2161821,19.2531692 59.5791944,19.9712 C58.9422067,20.7003077 57.9367075,21.0761846 56.5622067,21.0985846 L50.8636427,21.0985846 L50.8636427,13.7283692 L56.5622067,13.7283692 Z M56.2103678,3.39662769 C57.5623117,3.41907692 58.5567776,3.75000615 59.1937653,4.38941538 C59.8417863,5.07372308 60.1659194,5.90946462 60.1659194,6.89664 C60.1659194,7.88381538 59.8417863,8.70272 59.1937653,9.35335385 C58.5567776,10.0600862 57.5623117,10.4134646 56.2103678,10.4134646 L50.8636427,10.4134646 L50.8636427,3.39662769 L56.2103678,3.39662769 Z M67.8923993,24.6153846 L71.3953415,24.6153846 L71.3953415,7.14904615 L67.8923993,7.14904615 L67.8923993,24.6153846 Z M67.8923993,3.59854769 L71.3953415,3.59854769 L71.3953415,0.0817230769 L67.8923993,0.0817230769 L67.8923993,3.59854769 Z M76.0381436,24.6153846 L79.5410858,24.6153846 L79.5410858,14.2163446 C79.5410858,12.9936 79.870613,12.0624985 80.5299124,11.4230646 C81.1779335,10.7724308 82.0049387,10.4471138 83.0104378,10.4471138 C84.0161821,10.4471138 84.8375482,10.7724308 85.4742907,11.4230646 C86.1225569,12.0624985 86.4464448,12.9936 86.4464448,14.2163446 L86.4464448,24.6153846 L89.949387,24.6153846 L89.949387,13.0048 C89.8934851,11.0080246 89.2734151,9.49358769 88.0889317,8.46153846 C86.8934151,7.44071385 85.5748161,6.93028923 84.1336252,6.93028923 C82.2675306,6.93028923 80.7591594,7.62018462 79.6082662,9 L79.5410858,9 L79.5410858,7.14904615 L76.0381436,7.14904615 L76.0381436,24.6153846 Z M103.609317,24.6153846 L107.112259,24.6153846 L107.112259,12.6850954 C107.089947,10.5536738 106.425009,9.05048615 105.117688,8.17548308 C103.810368,7.32290462 102.061716,6.90786462 99.8717338,6.93028923 C97.2794046,6.88541538 95.3184238,7.73796923 93.9887916,9.48797538 L96.7375482,11.5913354 C97.0391243,11.0865477 97.4525044,10.7275569 97.9776883,10.5144123 C98.4805604,10.3349415 99.1678109,10.2451938 100.03944,10.2451938 C102.441751,10.20032 103.631629,10.9463138 103.609317,12.4831754 L103.609317,14.3173169 L98.7654641,14.3173169 C96.910648,14.3397415 95.5028021,14.8445538 94.5419264,15.8317292 C93.5808056,16.79648 93.1004904,18.0135385 93.1004904,19.4830769 C93.1004904,21.0200615 93.6536252,22.2820923 94.7596497,23.2691692 C95.8100175,24.2788923 97.3073555,24.7948308 99.2516637,24.8172308 C100.435902,24.8172308 101.363433,24.6715077 102.033765,24.3798154 C102.715377,24.0994462 103.218249,23.6617846 103.542382,23.0673231 L103.609317,23.0673231 L103.609317,24.6153846 Z M103.609317,18.4736 C103.609317,19.7860923 103.335692,20.6274462 102.788196,20.9976615 C102.184799,21.3678769 101.151103,21.5416615 99.6873555,21.5192615 C98.5251839,21.5192615 97.6927846,21.2893538 97.1899124,20.8292923 C96.6649737,20.4142769 96.4023818,19.9094154 96.4023818,19.3149538 C96.3798249,17.9574154 97.3855692,17.2563692 99.4191243,17.2115692 L103.609317,17.2115692 L103.609317,18.4736 Z M111.637618,24.6153846 L115.14056,24.6153846 L115.14056,14.09856 C115.163117,12.8197169 115.531629,11.8942277 116.24683,11.3221169 C116.883818,10.7387815 117.649037,10.4471138 118.542977,10.4471138 C119.336392,10.4471138 120.101856,10.7387815 120.83937,11.3221169 L123.38683,8.27643077 C122.347741,7.40145231 121.129667,6.95271385 119.7331,6.93028923 C117.867005,6.93028923 116.358634,7.62018462 115.207741,9 L115.14056,9 L115.14056,7.14904615 L111.637618,7.14904615 L111.637618,24.6153846 Z M130.466515,23.9254154 L129.511278,26.8534154 C129.354851,27.3582769 129.080981,27.7395692 128.689912,27.9975385 C128.298844,28.2444308 127.874186,28.3677538 127.416182,28.3677538 L126.393765,28.3677538 L126.393765,31.6827077 L127.550298,31.6827077 C128.634011,31.6827077 129.606165,31.4414769 130.466515,30.9590154 C131.315832,30.4544 131.980525,29.5456 132.461086,28.2331077 L139.95317,7.14904615 L136.232259,7.14904615 L132.125919,19.3821538 L132.058739,19.3821538 L127.935727,7.14904615 L124.231734,7.14904615 L130.466515,23.9254154 Z" id="path0_fill"></path>
            </g>
        </g>
    </g>
</svg>