<svg id="Layer_1" data-name="Layer 1" xmlns="http://www.w3.org/2000/svg" viewBox="0 0 137.07 38.68"><defs><style>.cls-1{fill:#44b6e8;}.cls-2{fill:none;}.cls-3{fill:#248dcd;}.cls-4{fill:#fff;}</style></defs><title>Coupa_Logo</title><path class="cls-1" d="M61.13,28.86a9.69,9.69,0,0,1-5,1.29c-5.67,0-9-3.94-9-10.62,0-4.75,1.81-7.88,4.23-9.53a9.69,9.69,0,0,1,5.1-1.53,8.87,8.87,0,0,1,4,.92,9.81,9.81,0,0,1,2,1.45l-2.62,3.54a5.2,5.2,0,0,0-3.25-1.61c-2.42,0-3.5,2.09-3.5,6.92,0,2.69.36,4.3,1,5.19A3.11,3.11,0,0,0,56.54,26a5.54,5.54,0,0,0,3.71-1.68l.32-.29L63,27.33A8.28,8.28,0,0,1,61.13,28.86Z" transform="translate(-2.93 -0.32)"/><path class="cls-1" d="M79.07,27.25a8.42,8.42,0,0,1-6.8,2.86c-5.59,0-9.25-4.19-9.25-10.66s3.7-10.78,9.25-10.78a8.64,8.64,0,0,1,7,3.1c1.65,1.93,2.37,4.18,2.37,7.52C81.64,22.83,80.84,25.24,79.07,27.25ZM74.68,13.74a2.85,2.85,0,0,0-2.33-1.09,2.9,2.9,0,0,0-2.77,2.09A14.47,14.47,0,0,0,69,19.33a14.39,14.39,0,0,0,.69,5.19,3,3,0,0,0,2.73,1.69c2.33,0,3.34-2.1,3.34-7C75.77,16.47,75.41,14.66,74.68,13.74Z" transform="translate(-2.93 -0.32)"/><path class="cls-1" d="M96.8,30.23a4.78,4.78,0,0,1-1.6-2,7.73,7.73,0,0,1-5.43,2c-2.9,0-5.39-1.37-6.08-3.34a12.38,12.38,0,0,1-.44-4.1V9.55l5.31-1V21.78A8.16,8.16,0,0,0,89,25.16a2.17,2.17,0,0,0,1.89,1,4,4,0,0,0,3.34-2V9.68l5.15-1.09V24.32a6,6,0,0,0,1.25,3.74Z" transform="translate(-2.93 -0.32)"/><path class="cls-1" d="M117.92,27.77a7.34,7.34,0,0,1-5.51,2.34,8.65,8.65,0,0,1-4.3-1.09,11.14,11.14,0,0,1,.08,1.69v6.44L103,38.51V14.7a26.2,26.2,0,0,0-.32-5.19l4.78-.84a9,9,0,0,1,.36,1.93,6.9,6.9,0,0,1,5.07-1.93A7.38,7.38,0,0,1,117,9.92c2.22,1.48,3.83,4.14,3.83,8.89C120.78,23.23,120.05,25.48,117.92,27.77Zm-3.54-13a2.49,2.49,0,0,0-2.57-1.73,5,5,0,0,0-3.58,1.57v10a5.08,5.08,0,0,0,3,1.2c2.66,0,3.7-1.81,3.7-6.51A14.74,14.74,0,0,0,114.38,14.78Z" transform="translate(-2.93 -0.32)"/><path class="cls-1" d="M137.14,30.71a5.77,5.77,0,0,1-2.89-2.49A10,10,0,0,1,133,29.3a7.05,7.05,0,0,1-4.14,1.13c-4.59,0-7.08-2.33-7.08-6.44,0-4.82,3.34-7.08,9.89-7.08a10,10,0,0,1,1.21.05v-.85c0-2.29-.44-3.06-2.41-3.06-1.73,0-3.74.85-6,2.34l-2.3-3.86a19.22,19.22,0,0,1,3.34-1.69,13.85,13.85,0,0,1,5.63-1.21c3.46,0,5.83,1.29,6.64,3.58a9.57,9.57,0,0,1,.36,3.7l-.12,6.92c0,2.25.12,3.21,1.93,4.58Zm-4.58-10c-3.74,0-5,.68-5,3.13a2.45,2.45,0,0,0,2.38,2.7,3.92,3.92,0,0,0,2.81-1.41l.08-4.42Z" transform="translate(-2.93 -0.32)"/><path class="cls-2" d="M41.4,19.36a5.68,5.68,0,0,0,3.21-1.43,1.8,1.8,0,0,0,.44-1.47c-.21-1.31-1.88-2.24-3.69-2.87a4.35,4.35,0,0,0,1.54-1.72,1.81,1.81,0,0,0-.08-1.62c-.57-1-2-1.46-4.42-1.46h0a4.14,4.14,0,0,0,.76-2.22,1.83,1.83,0,0,0-.66-1.42,2.58,2.58,0,0,0-1.7-.52,7.63,7.63,0,0,0-2.21.4,4.47,4.47,0,0,0-.14-1.76A2,2,0,0,0,33.31,2a2.15,2.15,0,0,0-.85-.17,5.21,5.21,0,0,0-3,1.36C29,1.49,28.13.46,27,.33h-.22c-1,0-1.91.71-2.68,2a4.19,4.19,0,0,0-3-1.85,1.73,1.73,0,0,0-.32,0,2.1,2.1,0,0,0-1.47,1,4.78,4.78,0,0,0-.63,2.09,7.09,7.09,0,0,0-3.41-1.24,2.27,2.27,0,0,0-1.06.23,1.89,1.89,0,0,0-1,1.29A4,4,0,0,0,13.42,6a11.71,11.71,0,0,0-2.28-.26,3.29,3.29,0,0,0-2.4.74A1.82,1.82,0,0,0,8.22,8.1a4.83,4.83,0,0,0,1.54,2.45c-2.29.25-4.77.85-5.38,2.28a1.77,1.77,0,0,0,.1,1.58,5.21,5.21,0,0,0,2.74,1.94c-2.43,1.17-4.33,2.59-4.29,4.1,0,1.05.87,2.3,4.69,2.3l1,0c-2.13,2.16-4.09,4.8-3.06,6.5a2.28,2.28,0,0,0,2.13,1,11.89,11.89,0,0,0,4.5-1.29,10.48,10.48,0,0,0-.95,5.37,2.28,2.28,0,0,0,1,1.57,2.13,2.13,0,0,0,1.12.3c1.65,0,3.82-1.7,5.94-4.13.15,2.56.65,4.89,1.69,6.08a2.32,2.32,0,0,0,1.66.87h.1c2.12,0,3.54-2.94,4.42-5.78,1.44,2.49,3.07,4.2,4.61,4.2a2.11,2.11,0,0,0,.82-.17c1.84-.77,2.07-3.85,1.59-7.27,1.91,1.38,3.59,2.15,4.8,2.15h0a2.11,2.11,0,0,0,1.68-.71c1.15-1.34.22-3.76-1-5.91a11.56,11.56,0,0,0,2.12.24h0c2,0,2.61-.83,2.81-1.53C45,22.73,43.47,21,41.4,19.36Z" transform="translate(-2.93 -0.32)"/><path class="cls-1" d="M35.09,16.64q-1.05-.5-2-.9c.66-.13,1.34-.29,2-.48C39.74,14,42.71,12,42,10.73s-4.65-1.32-9.1-.27c-.64.15-1.26.32-1.86.5.31-.46.62-.93.9-1.42,1.88-3.31,2.24-6.14,1-6.67S29.17,4.19,27,7.3c-.32.47-.61.94-.88,1.41-.14-.52-.31-1-.5-1.56C24.37,3.63,22.34,1.21,21,1.42s-1.77,3.12-.74,6.83c.16.55.33,1.09.53,1.61C20.2,9.54,19.62,9.24,19,9c-4.3-2.06-8.52-2.85-9.59-1.8S10.93,11,15.5,13.28q1,.49,1.95.9c-.75.13-1.54.29-2.34.48-6,1.43-11.26,4-11.21,5.76s5.77,1.81,12.28,0c.86-.23,1.69-.49,2.47-.75-.5.63-1,1.32-1.51,2-4,5.8-6.25,12.19-4.39,13.31S19.58,31.2,23.14,25c.45-.79.85-1.55,1.2-2.29.16.78.36,1.59.59,2.44,1.85,6.63,5.28,12.11,7.32,11.26s1.46-7.2-.79-13.36c-.29-.79-.59-1.53-.9-2.23.67.4,1.38.78,2.12,1.16,5.49,2.76,10.51,3.68,11,2S40.18,19.08,35.09,16.64Z" transform="translate(-2.93 -0.32)"/><g id="Layer_2" data-name="Layer 2"><path class="cls-3" d="M20.22,18.57c-.58.2-1.21.39-1.86.57a28.19,28.19,0,0,1-5.31.93c-4.46,3.45-7.56,7.22-6.69,8.66s5.22-.11,9.92-3.2a26.12,26.12,0,0,1,2.84-5.42C19.49,19.56,19.86,19.05,20.22,18.57Z" transform="translate(-2.93 -0.32)"/><path class="cls-3" d="M19.2,14.35c-.5-.21-1-.44-1.52-.7a19,19,0,0,1-3.59-2.28c-4.53-.14-8.29.57-8.83,1.84S7.61,15.87,12,16.6a27.11,27.11,0,0,1,5.42-1.87C18,14.58,18.63,14.46,19.2,14.35Z" transform="translate(-2.93 -0.32)"/><path class="cls-3" d="M21.72,10.93c-.16-.42-.31-.85-.44-1.29a12,12,0,0,1-.51-3.34c-2.51-2.22-5-3.42-6.09-2.87s-.57,2.65,1.22,5.2a20.38,20.38,0,0,1,4.43,1.58C20.82,10.44,21.28,10.69,21.72,10.93Z" transform="translate(-2.93 -0.32)"/><path class="cls-3" d="M29.85,11.8c.48-.15,1-.29,1.49-.41a19.43,19.43,0,0,1,4-.58c2.37-2.17,3.38-4.18,2.49-4.92S34.67,5.74,32,7.22a11.8,11.8,0,0,1-1.39,3.42C30.35,11,30.11,11.43,29.85,11.8Z" transform="translate(-2.93 -0.32)"/><path class="cls-3" d="M24.58,20.82c-.26.54-.57,1.11-.9,1.68a27.59,27.59,0,0,1-3.3,4.58c-.52,5.84.36,10.86,2.34,11s3.79-4.4,4.65-9.89A23.63,23.63,0,0,1,25,22.62Q24.76,21.69,24.58,20.82Z" transform="translate(-2.93 -0.32)"/><path class="cls-3" d="M26,10c.21-.39.45-.77.7-1.15a14.06,14.06,0,0,1,2.24-2.62c-.07-2.81-.89-4.81-2-4.93s-2.31,1.51-3,4.08A12.73,12.73,0,0,1,25.6,8.72C25.75,9.14,25.88,9.57,26,10Z" transform="translate(-2.93 -0.32)"/><path class="cls-3" d="M44.1,16.62c-.19-1.2-3.09-2.43-6.93-3.09A17.42,17.42,0,0,1,33,15.2c-.54.15-1.07.27-1.6.38.52.2,1,.44,1.58.7A24.29,24.29,0,0,1,37,18.71C41.31,18.77,44.31,17.91,44.1,16.62Z" transform="translate(-2.93 -0.32)"/><path class="cls-3" d="M29.35,19.43c.23.53.45,1.08.66,1.67a24.68,24.68,0,0,1,1.24,5.07c3.81,3.77,7.61,5.92,8.72,4.63s-.75-4.85-3.81-8.56A23,23,0,0,1,31,20.31C30.39,20,29.85,19.73,29.35,19.43Z" transform="translate(-2.93 -0.32)"/></g><path class="cls-4" d="M37,18.71a24.29,24.29,0,0,0-4.08-2.43c-.53-.26-1.06-.5-1.58-.71.53-.1,1.06-.22,1.6-.37a17.42,17.42,0,0,0,4.21-1.67c1.17-.7,1.75-1.41,1.47-1.94s-1.55-.84-3.26-.78a20.13,20.13,0,0,0-4,.58c-.52.12-1,.26-1.49.41.26-.37.5-.76.73-1.16A11.58,11.58,0,0,0,32,7.22c.22-1.09.08-1.88-.45-2.11s-1.55.18-2.6,1.11A13.67,13.67,0,0,0,26.7,8.84,12.75,12.75,0,0,0,26,10c-.11-.42-.24-.85-.39-1.27a12.73,12.73,0,0,0-1.74-3.35c-.73-1-1.48-1.51-2.07-1.4s-1,1-1,2.33a12,12,0,0,0,.51,3.34c.13.44.28.87.44,1.29-.44-.24-.9-.49-1.39-.72A20.38,20.38,0,0,0,15.9,8.63c-1.53-.33-2.72-.3-3.15.16s.07,1.5,1.34,2.58a19,19,0,0,0,3.59,2.28c.51.26,1,.49,1.52.7-.57.11-1.17.23-1.79.38A27.11,27.11,0,0,0,12,16.6c-1.79.86-2.91,1.78-2.84,2.49s1.64,1.13,3.91,1a28.23,28.23,0,0,0,5.3-.93c.65-.18,1.28-.37,1.86-.57-.36.48-.73,1-1.1,1.54a26.12,26.12,0,0,0-2.84,5.42c-.73,2-.84,3.59-.08,4s2.46-.58,4.18-2.47a27.59,27.59,0,0,0,3.3-4.58c.33-.57.64-1.14.9-1.68q.18.87.45,1.8a23.63,23.63,0,0,0,2.34,5.53c1.07,1.77,2.2,2.8,3,2.49s1.15-2.12.85-4.47A24.68,24.68,0,0,0,30,21.1c-.21-.59-.43-1.14-.66-1.67.5.3,1,.59,1.61.88a23,23,0,0,0,5.2,1.93c1.74.38,3,.29,3.22-.38S38.67,20,37,18.71Z" transform="translate(-2.93 -0.32)"/></svg>